. 
  
http://www.torrenting.com/        :     Greatest Movie Tracker on The Net!!!
 
http://www.Torrenting.com          :     Once & For all ;)


               www . Torrenting . Com 

(((((((((((((= Enjoy No RAR releases =))))))))))))))))))))


...................................NFO:....................................

.STORYLINE

Set in a medieval village that is haunted by a werewolf, a young girl falls for an orphaned woodcutter, much to her family's displeasure.

CAST

Gary Oldman	 ...	Father Solomon
Billy Burke	 ...	Cesaire
Shiloh Fernandez	 ...	
Peter
Max Irons	 ...	Henry Lazar
Virginia Madsen	 ...	Suzette
Lukas Haas	 ...	Father Auguste
Julie Christie	 ...	Grandmother

INFO

File size : 834 MiB
Duration : 1h 39mn
Overall bit rate : 1 169 Kbps

Video
ID : 1
Format : xvid
Codec ID : xvid
Duration : 1h 39mn
Bit rate : 954 Kbps
Width : 640 pixels
Height : 272 pixels
Display aspect ratio : 2.35:1
Frame rate : 29.970 fps
Bits/(Pixel*Frame) : 0.183
Stream size : 680 MiB (82%)

Audio
ID : 2
Format : AC-3
Format/Info : Audio Coding 3
Mode extension : CM (complete main)
Muxing mode : Header stripping
Codec ID : A_AC3
Duration : 1h 39mn
Bit rate mode : Constant
Bit rate : 192 Kbps
Channel(s) : 2 channels
Channel positions : Front: L R
Sampling rate : 44.1 KHz
Bit depth : 16 bits
Compression mode : Lossy
Stream size : 137 MiB (16%)